{
    "asset" : {
        "generator" : "Khronos glTF Blender I/O v1.1.46",
        "version" : "2.0"
    },
    "scene" : 0,
    "scenes" : [
        {
            "name" : "Scene",
            "nodes" : [
                0,
                1,
                2
            ]
        }
    ],
    "nodes" : [
        {
            "mesh" : 0,
            "name" : "frame",
            "scale" : [
                0.009999999776482582,
                0.009999999776482582,
                0.009999999776482582
            ],
            "translation" : [
                0,
                0.03226004168391228,
                -0.05663251876831055
            ]
        },
        {
            "mesh" : 1,
            "name" : "temple_right",
            "scale" : [
                0.009999999776482582,
                0.009999999776482582,
                0.009999999776482582
            ],
            "translation" : [
                -0.07183986157178879,
                0.03242811933159828,
                -0.04670846834778786
            ]
        },
        {
            "mesh" : 2,
            "name" : "temple_left",
            "scale" : [
                0.009999999776482582,
                0.009999999776482582,
                0.009999999776482582
            ],
            "translation" : [
                0.07183986157178879,
                0.03242811933159828,
                -0.046708445996046066
            ]
        }
    ],
    "materials" : [
        {
            "doubleSided" : true,
            "emissiveFactor" : [
                0,
                0,
                0
            ],
            "name" : "plastic.001",
            "pbrMetallicRoughness" : {
                "baseColorFactor" : [
                    0.05490196496248245,
                    0.05098039656877518,
                    0.05098039656877518,
                    1
                ],
                "metallicFactor" : 1,
                "roughnessFactor" : 0.5542798042297363
            }
        },
        {
            "alphaMode" : "BLEND",
            "emissiveFactor" : [
                0,
                0,
                0
            ],
            "name" : "lens.001",
            "pbrMetallicRoughness" : {
                "baseColorTexture" : {
                    "index" : 0,
                    "texCoord" : 0
                },
                "metallicFactor" : 0.4045454263687134,
                "roughnessFactor" : 0.06372392177581787
            }
        }
    ],
    "meshes" : [
        {
            "name" : "Mesh.005",
            "primitives" : [
                {
                    "attributes" : {
                        "POSITION" : 0,
                        "NORMAL" : 1,
                        "TEXCOORD_0" : 2
                    },
                    "indices" : 3,
                    "material" : 0
                },
                {
                    "attributes" : {
                        "POSITION" : 4,
                        "NORMAL" : 5,
                        "TEXCOORD_0" : 6
                    },
                    "indices" : 7,
                    "material" : 1
                }
            ]
        },
        {
            "name" : "Mesh.006",
            "primitives" : [
                {
                    "attributes" : {
                        "POSITION" : 8,
                        "NORMAL" : 9,
                        "TEXCOORD_0" : 10
                    },
                    "indices" : 11,
                    "material" : 0
                }
            ]
        },
        {
            "name" : "Mesh.007",
            "primitives" : [
                {
                    "attributes" : {
                        "POSITION" : 12,
                        "NORMAL" : 13,
                        "TEXCOORD_0" : 14
                    },
                    "indices" : 15,
                    "material" : 0
                }
            ]
        }
    ],
    "textures" : [
        {
            "source" : 0
        }
    ],
    "images" : [
        {
            "mimeType" : "image/jpeg",
            "name" : "texture",
            "uri" : "texture.jpg"
        }
    ],
    "accessors" : [
        {
            "bufferView" : 0,
            "componentType" : 5126,
            "count" : 18176,
            "max" : [
                7.2652788162231445,
                1.5651566982269287,
                1.2070132493972778
            ],
            "min" : [
                -7.265279293060303,
                -2.96079683303833,
                -0.11226893961429596
            ],
            "type" : "VEC3"
        },
        {
            "bufferView" : 1,
            "componentType" : 5126,
            "count" : 18176,
            "type" : "VEC3"
        },
        {
            "bufferView" : 2,
            "componentType" : 5126,
            "count" : 18176,
            "type" : "VEC2"
        },
        {
            "bufferView" : 3,
            "componentType" : 5123,
            "count" : 90960,
            "type" : "SCALAR"
        },
        {
            "bufferView" : 4,
            "componentType" : 5126,
            "count" : 3599,
            "max" : [
                6.6308159828186035,
                1.4096980094909668,
                0.5814256072044373
            ],
            "min" : [
                -6.630850791931152,
                -2.8697433471679688,
                0.021379079669713974
            ],
            "type" : "VEC3"
        },
        {
            "bufferView" : 5,
            "componentType" : 5126,
            "count" : 3599,
            "type" : "VEC3"
        },
        {
            "bufferView" : 6,
            "componentType" : 5126,
            "count" : 3599,
            "type" : "VEC2"
        },
        {
            "bufferView" : 7,
            "componentType" : 5123,
            "count" : 19968,
            "type" : "SCALAR"
        },
        {
            "bufferView" : 8,
            "componentType" : 5126,
            "count" : 2413,
            "max" : [
                0.40351927280426025,
                0.49088531732559204,
                12.009389877319336
            ],
            "min" : [
                -0.09614026546478271,
                -0.03544587641954422,
                -0.18197348713874817
            ],
            "type" : "VEC3"
        },
        {
            "bufferView" : 9,
            "componentType" : 5126,
            "count" : 2413,
            "type" : "VEC3"
        },
        {
            "bufferView" : 10,
            "componentType" : 5126,
            "count" : 2413,
            "type" : "VEC2"
        },
        {
            "bufferView" : 11,
            "componentType" : 5123,
            "count" : 7704,
            "type" : "SCALAR"
        },
        {
            "bufferView" : 12,
            "componentType" : 5126,
            "count" : 2368,
            "max" : [
                0.0961374044418335,
                0.49088531732559204,
                12.009389877319336
            ],
            "min" : [
                -0.4035230875015259,
                -0.03544587641954422,
                -0.18197372555732727
            ],
            "type" : "VEC3"
        },
        {
            "bufferView" : 13,
            "componentType" : 5126,
            "count" : 2368,
            "type" : "VEC3"
        },
        {
            "bufferView" : 14,
            "componentType" : 5126,
            "count" : 2368,
            "type" : "VEC2"
        },
        {
            "bufferView" : 15,
            "componentType" : 5123,
            "count" : 7704,
            "type" : "SCALAR"
        }
    ],
    "bufferViews" : [
        {
            "buffer" : 0,
            "byteLength" : 218112,
            "byteOffset" : 0
        },
        {
            "buffer" : 0,
            "byteLength" : 218112,
            "byteOffset" : 218112
        },
        {
            "buffer" : 0,
            "byteLength" : 145408,
            "byteOffset" : 436224
        },
        {
            "buffer" : 0,
            "byteLength" : 181920,
            "byteOffset" : 581632
        },
        {
            "buffer" : 0,
            "byteLength" : 43188,
            "byteOffset" : 763552
        },
        {
            "buffer" : 0,
            "byteLength" : 43188,
            "byteOffset" : 806740
        },
        {
            "buffer" : 0,
            "byteLength" : 28792,
            "byteOffset" : 849928
        },
        {
            "buffer" : 0,
            "byteLength" : 39936,
            "byteOffset" : 878720
        },
        {
            "buffer" : 0,
            "byteLength" : 28956,
            "byteOffset" : 918656
        },
        {
            "buffer" : 0,
            "byteLength" : 28956,
            "byteOffset" : 947612
        },
        {
            "buffer" : 0,
            "byteLength" : 19304,
            "byteOffset" : 976568
        },
        {
            "buffer" : 0,
            "byteLength" : 15408,
            "byteOffset" : 995872
        },
        {
            "buffer" : 0,
            "byteLength" : 28416,
            "byteOffset" : 1011280
        },
        {
            "buffer" : 0,
            "byteLength" : 28416,
            "byteOffset" : 1039696
        },
        {
            "buffer" : 0,
            "byteLength" : 18944,
            "byteOffset" : 1068112
        },
        {
            "buffer" : 0,
            "byteLength" : 15408,
            "byteOffset" : 1087056
        }
    ],
    "buffers" : [
        {
            "byteLength" : 1102464,
            "uri" : "bates_2.glb.bin"
        }
    ]
}
